<?xml version="1.0" encoding="UTF-8" standalone="no"?>
<!DOCTYPE svg PUBLIC "-//W3C//DTD SVG 1.1//EN"
 "http://www.w3.org/Graphics/SVG/1.1/DTD/svg11.dtd">
<!-- Generated by graphviz version 12.2.1 (20241206.2353)
 -->
<!-- Pages: 1 -->
<svg width="1754pt" height="164pt"
 viewBox="0.00 0.00 1754.32 164.00" xmlns="http://www.w3.org/2000/svg" xmlns:xlink="http://www.w3.org/1999/xlink">
<g id="graph0" class="graph" transform="scale(1 1) rotate(0) translate(4 160)">
<polygon fill="white" stroke="none" points="-4,4 -4,-160 1750.32,-160 1750.32,4 -4,4"/>
<g id="clust1" class="cluster">
<title>cluster_package_com.jeantessier.dependency</title>
</g>
<g id="clust2" class="cluster">
<title>cluster_classes_in_com.jeantessier.dependency</title>
</g>
<!-- com.jeantessier.dependency -->
<g id="node1" class="node">
<title>com.jeantessier.dependency</title>
<ellipse fill="none" stroke="black" cx="172" cy="-114" rx="114.82" ry="18"/>
<text text-anchor="middle" x="172" y="-108.95" font-family="Times,serif" font-size="14.00">com.jeantessier.dependency</text>
</g>
<!-- com.jeantessier.dependency.GraphCopier -->
<g id="node2" class="node">
<title>com.jeantessier.dependency.GraphCopier</title>
<ellipse fill="none" stroke="black" cx="83" cy="-42" rx="59.03" ry="18"/>
<text text-anchor="middle" x="83" y="-36.95" font-family="Times,serif" font-size="14.00">GraphCopier</text>
</g>
<!-- com.jeantessier.dependency&#45;&gt;com.jeantessier.dependency.GraphCopier -->
<g id="edge1" class="edge">
<title>com.jeantessier.dependency&#45;&gt;com.jeantessier.dependency.GraphCopier</title>
<path fill="none" stroke="black" d="M150.46,-96.05C136.26,-84.89 117.76,-70.34 103.73,-59.31"/>
</g>
<!-- com.jeantessier.dependency.GraphSummarizer -->
<g id="node3" class="node">
<title>com.jeantessier.dependency.GraphSummarizer</title>
<ellipse fill="none" stroke="black" cx="240" cy="-42" rx="80.01" ry="18"/>
<text text-anchor="middle" x="240" y="-36.95" font-family="Times,serif" font-size="14.00">GraphSummarizer</text>
</g>
<!-- com.jeantessier.dependency&#45;&gt;com.jeantessier.dependency.GraphSummarizer -->
<g id="edge2" class="edge">
<title>com.jeantessier.dependency&#45;&gt;com.jeantessier.dependency.GraphSummarizer</title>
<path fill="none" stroke="black" d="M188.46,-96.05C199.15,-85.05 213.03,-70.76 223.69,-59.79"/>
</g>
<!-- com.jeantessier.dependencyfinder.ant.DependencyReporter -->
<g id="node4" class="node">
<title>com.jeantessier.dependencyfinder.ant.DependencyReporter</title>
<ellipse fill="none" stroke="black" cx="575" cy="-114" rx="231" ry="18"/>
<text text-anchor="middle" x="575" y="-108.95" font-family="Times,serif" font-size="14.00">com.jeantessier.dependencyfinder.ant.DependencyReporter</text>
</g>
<!-- com.jeantessier.dependencyfinder.ant.DependencyReporter&#45;&gt;com.jeantessier.dependency.GraphCopier -->
<g id="edge3" class="edge">
<title>com.jeantessier.dependencyfinder.ant.DependencyReporter&#45;&gt;com.jeantessier.dependency.GraphCopier</title>
<path fill="none" stroke="black" stroke-dasharray="1,5" d="M432.04,-99.47C349.51,-90.58 243.98,-77.37 151,-60 146.49,-59.16 141.84,-58.2 137.18,-57.17"/>
<polygon fill="black" stroke="black" points="127.55,-54.94 138.3,-52.81 131.23,-55.79 137.29,-57.19 137.29,-57.19 137.29,-57.19 131.23,-55.79 136.28,-61.58 127.55,-54.94"/>
</g>
<!-- com.jeantessier.dependencyfinder.ant.DependencyReporter&#45;&gt;com.jeantessier.dependency.GraphSummarizer -->
<g id="edge6" class="edge">
<title>com.jeantessier.dependencyfinder.ant.DependencyReporter&#45;&gt;com.jeantessier.dependency.GraphSummarizer</title>
<path fill="none" stroke="black" stroke-dasharray="1,5" d="M496.88,-96.68C439.72,-84.73 362.93,-68.69 308.23,-57.26"/>
<polygon fill="black" stroke="black" points="298.45,-55.21 309.15,-52.85 302.15,-55.99 308.23,-57.26 308.23,-57.26 308.23,-57.26 302.15,-55.99 307.31,-61.66 298.45,-55.21"/>
</g>
<!-- com.jeantessier.dependencyfinder.cli.DependencyReporter -->
<g id="node5" class="node">
<title>com.jeantessier.dependencyfinder.cli.DependencyReporter</title>
<ellipse fill="none" stroke="black" cx="1053" cy="-114" rx="228.95" ry="18"/>
<text text-anchor="middle" x="1053" y="-108.95" font-family="Times,serif" font-size="14.00">com.jeantessier.dependencyfinder.cli.DependencyReporter</text>
</g>
<!-- com.jeantessier.dependencyfinder.cli.DependencyReporter&#45;&gt;com.jeantessier.dependency.GraphCopier -->
<g id="edge4" class="edge">
<title>com.jeantessier.dependencyfinder.cli.DependencyReporter&#45;&gt;com.jeantessier.dependency.GraphCopier</title>
<path fill="none" stroke="black" stroke-dasharray="1,5" d="M890.11,-100.99C864.96,-99.25 839.29,-97.53 815,-96 520.04,-77.47 443.24,-104.04 151,-60 146.13,-59.27 141.1,-58.34 136.08,-57.3"/>
<polygon fill="black" stroke="black" points="126.38,-55.14 137.12,-52.92 130.07,-55.96 136.14,-57.31 136.14,-57.31 136.14,-57.31 130.07,-55.96 135.16,-61.7 126.38,-55.14"/>
</g>
<!-- com.jeantessier.dependencyfinder.cli.DependencyReporter&#45;&gt;com.jeantessier.dependency.GraphSummarizer -->
<g id="edge7" class="edge">
<title>com.jeantessier.dependencyfinder.cli.DependencyReporter&#45;&gt;com.jeantessier.dependency.GraphSummarizer</title>
<path fill="none" stroke="black" stroke-dasharray="1,5" d="M902.46,-100.04C732.3,-85.39 461.26,-62.05 324.63,-50.29"/>
<polygon fill="black" stroke="black" points="315.04,-49.46 325.39,-45.84 318.81,-49.79 325,-50.32 325,-50.32 325,-50.32 318.81,-49.79 324.62,-54.8 315.04,-49.46"/>
</g>
<!-- com.jeantessier.dependencyfinder.gui.DependencyFinder -->
<g id="node6" class="node">
<title>com.jeantessier.dependencyfinder.gui.DependencyFinder</title>
<ellipse fill="none" stroke="black" cx="1523" cy="-114" rx="223.32" ry="18"/>
<text text-anchor="middle" x="1523" y="-108.95" font-family="Times,serif" font-size="14.00">com.jeantessier.dependencyfinder.gui.DependencyFinder</text>
</g>
<!-- com.jeantessier.dependencyfinder.gui.DependencyFinder&#45;&gt;com.jeantessier.dependency.GraphCopier -->
<g id="edge5" class="edge">
<title>com.jeantessier.dependencyfinder.gui.DependencyFinder&#45;&gt;com.jeantessier.dependency.GraphCopier</title>
<path fill="none" stroke="black" stroke-dasharray="1,5" d="M1367.69,-100.72C1342.08,-98.96 1315.8,-97.3 1291,-96 784.78,-69.47 653.08,-129.87 151,-60 146.12,-59.32 141.09,-58.43 136.07,-57.42"/>
<polygon fill="black" stroke="black" points="126.36,-55.28 137.09,-53.03 130.05,-56.1 136.12,-57.43 136.12,-57.43 136.12,-57.43 130.05,-56.1 135.16,-61.82 126.36,-55.28"/>
</g>
<!-- com.jeantessier.dependencyfinder.gui.DependencyFinder&#45;&gt;com.jeantessier.dependency.GraphSummarizer -->
<g id="edge8" class="edge">
<title>com.jeantessier.dependencyfinder.gui.DependencyFinder&#45;&gt;com.jeantessier.dependency.GraphSummarizer</title>
<path fill="none" stroke="black" stroke-dasharray="1,5" d="M1364.85,-100.93C1340.14,-99.18 1314.88,-97.48 1291,-96 934.9,-73.98 510.49,-54.71 329.22,-46.81"/>
<polygon fill="black" stroke="black" points="319.37,-46.38 329.56,-42.32 323.15,-46.55 329.36,-46.82 329.36,-46.82 329.36,-46.82 323.15,-46.55 329.17,-51.32 319.37,-46.38"/>
</g>
</g>
</svg>
