<?xml version="1.0" encoding="UTF-8" standalone="no"?>
<!DOCTYPE svg PUBLIC "-//W3C//DTD SVG 1.1//EN"
 "http://www.w3.org/Graphics/SVG/1.1/DTD/svg11.dtd">
<!-- Generated by graphviz version 12.2.1 (20241206.2353)
 -->
<!-- Pages: 1 -->
<svg width="1162pt" height="236pt"
 viewBox="0.00 0.00 1162.00 236.00" xmlns="http://www.w3.org/2000/svg" xmlns:xlink="http://www.w3.org/1999/xlink">
<g id="graph0" class="graph" transform="scale(1 1) rotate(0) translate(4 232)">
<polygon fill="white" stroke="none" points="-4,4 -4,-232 1158,-232 1158,4 -4,4"/>
<g id="clust1" class="cluster">
<title>cluster_package_com.jeantessier.dependency</title>
</g>
<g id="clust2" class="cluster">
<title>cluster_classes_in_com.jeantessier.dependency</title>
</g>
<g id="clust3" class="cluster">
<title>cluster_package_com.jeantessier.dependencyfinder.ant</title>
</g>
<g id="clust4" class="cluster">
<title>cluster_classes_in_com.jeantessier.dependencyfinder.ant</title>
</g>
<g id="clust5" class="cluster">
<title>cluster_package_com.jeantessier.dependencyfinder.cli</title>
</g>
<g id="clust6" class="cluster">
<title>cluster_classes_in_com.jeantessier.dependencyfinder.cli</title>
</g>
<g id="clust7" class="cluster">
<title>cluster_package_com.jeantessier.dependencyfinder.gui</title>
</g>
<g id="clust8" class="cluster">
<title>cluster_classes_in_com.jeantessier.dependencyfinder.gui</title>
</g>
<!-- com.jeantessier.dependency -->
<g id="node1" class="node">
<title>com.jeantessier.dependency</title>
<ellipse fill="none" stroke="black" cx="172" cy="-114" rx="114.82" ry="18"/>
<text text-anchor="middle" x="172" y="-108.95" font-family="Times,serif" font-size="14.00">com.jeantessier.dependency</text>
</g>
<!-- com.jeantessier.dependency.GraphCopier -->
<g id="node2" class="node">
<title>com.jeantessier.dependency.GraphCopier</title>
<ellipse fill="none" stroke="black" cx="83" cy="-42" rx="59.03" ry="18"/>
<text text-anchor="middle" x="83" y="-36.95" font-family="Times,serif" font-size="14.00">GraphCopier</text>
</g>
<!-- com.jeantessier.dependency&#45;&gt;com.jeantessier.dependency.GraphCopier -->
<g id="edge1" class="edge">
<title>com.jeantessier.dependency&#45;&gt;com.jeantessier.dependency.GraphCopier</title>
<path fill="none" stroke="black" d="M150.46,-96.05C136.26,-84.89 117.76,-70.34 103.73,-59.31"/>
</g>
<!-- com.jeantessier.dependency.GraphSummarizer -->
<g id="node3" class="node">
<title>com.jeantessier.dependency.GraphSummarizer</title>
<ellipse fill="none" stroke="black" cx="240" cy="-42" rx="80.01" ry="18"/>
<text text-anchor="middle" x="240" y="-36.95" font-family="Times,serif" font-size="14.00">GraphSummarizer</text>
</g>
<!-- com.jeantessier.dependency&#45;&gt;com.jeantessier.dependency.GraphSummarizer -->
<g id="edge2" class="edge">
<title>com.jeantessier.dependency&#45;&gt;com.jeantessier.dependency.GraphSummarizer</title>
<path fill="none" stroke="black" d="M188.46,-96.05C199.15,-85.05 213.03,-70.76 223.69,-59.79"/>
</g>
<!-- com.jeantessier.dependencyfinder.ant -->
<g id="node4" class="node">
<title>com.jeantessier.dependencyfinder.ant</title>
<ellipse fill="none" stroke="black" cx="475" cy="-186" rx="114.82" ry="18"/>
<text text-anchor="middle" x="475" y="-180.95" font-family="Times,serif" font-size="14.00">com.jeantessier.dependency</text>
</g>
<!-- com.jeantessier.dependencyfinder.ant.DependencyReporter -->
<g id="node5" class="node">
<title>com.jeantessier.dependencyfinder.ant.DependencyReporter</title>
<ellipse fill="none" stroke="black" cx="449" cy="-114" rx="89.23" ry="18"/>
<text text-anchor="middle" x="449" y="-108.95" font-family="Times,serif" font-size="14.00">DependencyReporter</text>
</g>
<!-- com.jeantessier.dependencyfinder.ant&#45;&gt;com.jeantessier.dependencyfinder.ant.DependencyReporter -->
<g id="edge3" class="edge">
<title>com.jeantessier.dependencyfinder.ant&#45;&gt;com.jeantessier.dependencyfinder.ant.DependencyReporter</title>
<path fill="none" stroke="black" d="M468.57,-167.7C464.54,-156.85 459.37,-142.92 455.35,-132.1"/>
</g>
<!-- com.jeantessier.dependencyfinder.ant.DependencyReporter&#45;&gt;com.jeantessier.dependency.GraphCopier -->
<g id="edge6" class="edge">
<title>com.jeantessier.dependencyfinder.ant.DependencyReporter&#45;&gt;com.jeantessier.dependency.GraphCopier</title>
<path fill="none" stroke="black" stroke-dasharray="1,5" d="M403.02,-98.14C381.63,-91.71 355.72,-84.62 332,-80 252.56,-64.52 230.66,-74.29 151,-60 146.29,-59.16 141.43,-58.17 136.56,-57.1"/>
<polygon fill="black" stroke="black" points="127.17,-54.95 137.92,-52.8 130.85,-55.79 136.91,-57.19 136.91,-57.19 136.91,-57.19 130.85,-55.79 135.9,-61.57 127.17,-54.95"/>
</g>
<!-- com.jeantessier.dependencyfinder.ant.DependencyReporter&#45;&gt;com.jeantessier.dependency.GraphSummarizer -->
<g id="edge9" class="edge">
<title>com.jeantessier.dependencyfinder.ant.DependencyReporter&#45;&gt;com.jeantessier.dependency.GraphSummarizer</title>
<path fill="none" stroke="black" stroke-dasharray="1,5" d="M404.16,-97.98C371.77,-87.13 327.88,-72.43 293.63,-60.96"/>
<polygon fill="black" stroke="black" points="284.49,-57.9 295.4,-56.81 288.07,-59.1 293.97,-61.08 293.97,-61.08 293.97,-61.08 288.07,-59.1 292.54,-65.34 284.49,-57.9"/>
</g>
<!-- com.jeantessier.dependencyfinder.cli -->
<g id="node6" class="node">
<title>com.jeantessier.dependencyfinder.cli</title>
<ellipse fill="none" stroke="black" cx="745" cy="-186" rx="114.82" ry="18"/>
<text text-anchor="middle" x="745" y="-180.95" font-family="Times,serif" font-size="14.00">com.jeantessier.dependency</text>
</g>
<!-- com.jeantessier.dependencyfinder.cli.DependencyReporter -->
<g id="node7" class="node">
<title>com.jeantessier.dependencyfinder.cli.DependencyReporter</title>
<ellipse fill="none" stroke="black" cx="719" cy="-114" rx="89.23" ry="18"/>
<text text-anchor="middle" x="719" y="-108.95" font-family="Times,serif" font-size="14.00">DependencyReporter</text>
</g>
<!-- com.jeantessier.dependencyfinder.cli&#45;&gt;com.jeantessier.dependencyfinder.cli.DependencyReporter -->
<g id="edge4" class="edge">
<title>com.jeantessier.dependencyfinder.cli&#45;&gt;com.jeantessier.dependencyfinder.cli.DependencyReporter</title>
<path fill="none" stroke="black" d="M738.57,-167.7C734.54,-156.85 729.37,-142.92 725.35,-132.1"/>
</g>
<!-- com.jeantessier.dependencyfinder.cli.DependencyReporter&#45;&gt;com.jeantessier.dependency.GraphCopier -->
<g id="edge7" class="edge">
<title>com.jeantessier.dependencyfinder.cli.DependencyReporter&#45;&gt;com.jeantessier.dependency.GraphCopier</title>
<path fill="none" stroke="black" stroke-dasharray="1,5" d="M674.82,-97.94C653.14,-91.22 626.48,-83.94 602,-80 403.91,-48.11 349.55,-88.92 151,-60 146.13,-59.29 141.1,-58.38 136.08,-57.35"/>
<polygon fill="black" stroke="black" points="126.37,-55.2 137.1,-52.97 130.06,-56.02 136.13,-57.36 136.13,-57.36 136.13,-57.36 130.06,-56.02 135.16,-61.76 126.37,-55.2"/>
</g>
<!-- com.jeantessier.dependencyfinder.cli.DependencyReporter&#45;&gt;com.jeantessier.dependency.GraphSummarizer -->
<g id="edge10" class="edge">
<title>com.jeantessier.dependencyfinder.cli.DependencyReporter&#45;&gt;com.jeantessier.dependency.GraphSummarizer</title>
<path fill="none" stroke="black" stroke-dasharray="1,5" d="M673.32,-98.13C651.87,-91.67 625.84,-84.55 602,-80 509.48,-62.36 401.94,-52.72 328.25,-47.74"/>
<polygon fill="black" stroke="black" points="318.4,-47.09 328.67,-43.26 322.17,-47.34 328.37,-47.75 328.37,-47.75 328.37,-47.75 322.17,-47.34 328.08,-52.24 318.4,-47.09"/>
</g>
<!-- com.jeantessier.dependencyfinder.gui -->
<g id="node8" class="node">
<title>com.jeantessier.dependencyfinder.gui</title>
<ellipse fill="none" stroke="black" cx="1015" cy="-186" rx="114.82" ry="18"/>
<text text-anchor="middle" x="1015" y="-180.95" font-family="Times,serif" font-size="14.00">com.jeantessier.dependency</text>
</g>
<!-- com.jeantessier.dependencyfinder.gui.DependencyFinder -->
<g id="node9" class="node">
<title>com.jeantessier.dependencyfinder.gui.DependencyFinder</title>
<ellipse fill="none" stroke="black" cx="981" cy="-114" rx="81.04" ry="18"/>
<text text-anchor="middle" x="981" y="-108.95" font-family="Times,serif" font-size="14.00">DependencyFinder</text>
</g>
<!-- com.jeantessier.dependencyfinder.gui&#45;&gt;com.jeantessier.dependencyfinder.gui.DependencyFinder -->
<g id="edge5" class="edge">
<title>com.jeantessier.dependencyfinder.gui&#45;&gt;com.jeantessier.dependencyfinder.gui.DependencyFinder</title>
<path fill="none" stroke="black" d="M1006.6,-167.7C1001.33,-156.85 994.56,-142.92 989.31,-132.1"/>
</g>
<!-- com.jeantessier.dependencyfinder.gui.DependencyFinder&#45;&gt;com.jeantessier.dependency.GraphCopier -->
<g id="edge8" class="edge">
<title>com.jeantessier.dependencyfinder.gui.DependencyFinder&#45;&gt;com.jeantessier.dependency.GraphCopier</title>
<path fill="none" stroke="black" stroke-dasharray="1,5" d="M940.72,-98C920.41,-91.16 895.22,-83.77 872,-80 555.57,-28.66 468.59,-103.58 151,-60 146.12,-59.33 141.09,-58.45 136.06,-57.44"/>
<polygon fill="black" stroke="black" points="126.35,-55.31 137.08,-53.05 130.05,-56.12 136.12,-57.45 136.12,-57.45 136.12,-57.45 130.05,-56.12 135.16,-61.84 126.35,-55.31"/>
</g>
<!-- com.jeantessier.dependencyfinder.gui.DependencyFinder&#45;&gt;com.jeantessier.dependency.GraphSummarizer -->
<g id="edge11" class="edge">
<title>com.jeantessier.dependencyfinder.gui.DependencyFinder&#45;&gt;com.jeantessier.dependency.GraphSummarizer</title>
<path fill="none" stroke="black" stroke-dasharray="1,5" d="M939.89,-98.05C919.71,-91.36 894.87,-84.07 872,-80 770.59,-61.94 478.88,-50.49 329.9,-45.65"/>
<polygon fill="black" stroke="black" points="320.21,-45.34 330.35,-41.17 323.99,-45.46 330.2,-45.66 330.2,-45.66 330.2,-45.66 323.99,-45.46 330.06,-50.16 320.21,-45.34"/>
</g>
</g>
</svg>
